<mxfile host="app.diagrams.net" agent="Mozilla/5.0 (Windows NT 10.0; Win64; x64) AppleWebKit/537.36 (KHTML, like Gecko) Chrome/131.0.0.0 Safari/537.36" version="26.0.3">
  <diagram name="Page-1" id="Q4H43YfUntnllYcWAFMs">
    <mxGraphModel dx="1262" dy="712" grid="1" gridSize="10" guides="1" tooltips="1" connect="1" arrows="1" fold="1" page="1" pageScale="1" pageWidth="827" pageHeight="1169" math="0" shadow="0">
      <root>
        <mxCell id="0" />
        <mxCell id="1" parent="0" />
        <mxCell id="DUGgmScSP8CRJdgulUdB-48" value="" style="rounded=0;whiteSpace=wrap;html=1;" vertex="1" parent="1">
          <mxGeometry x="140" y="50" width="670" height="710" as="geometry" />
        </mxCell>
        <mxCell id="DUGgmScSP8CRJdgulUdB-2" value="User" style="shape=umlActor;verticalLabelPosition=bottom;verticalAlign=top;html=1;" vertex="1" parent="1">
          <mxGeometry x="20" y="390" width="30" height="60" as="geometry" />
        </mxCell>
        <mxCell id="DUGgmScSP8CRJdgulUdB-3" value="Set Hours" style="ellipse;whiteSpace=wrap;html=1;" vertex="1" parent="1">
          <mxGeometry x="414" y="280" width="140" height="70" as="geometry" />
        </mxCell>
        <mxCell id="DUGgmScSP8CRJdgulUdB-4" value="Choose Display" style="ellipse;whiteSpace=wrap;html=1;" vertex="1" parent="1">
          <mxGeometry x="220" y="110" width="140" height="70" as="geometry" />
        </mxCell>
        <mxCell id="DUGgmScSP8CRJdgulUdB-5" value="Set Alarm" style="ellipse;whiteSpace=wrap;html=1;" vertex="1" parent="1">
          <mxGeometry x="220" y="390" width="140" height="70" as="geometry" />
        </mxCell>
        <mxCell id="DUGgmScSP8CRJdgulUdB-6" value="Alarm Sound" style="ellipse;whiteSpace=wrap;html=1;" vertex="1" parent="1">
          <mxGeometry x="460" y="400" width="140" height="70" as="geometry" />
        </mxCell>
        <mxCell id="DUGgmScSP8CRJdgulUdB-7" value="Turn On/Off Alarm" style="ellipse;whiteSpace=wrap;html=1;" vertex="1" parent="1">
          <mxGeometry x="220" y="490" width="140" height="70" as="geometry" />
        </mxCell>
        <mxCell id="DUGgmScSP8CRJdgulUdB-8" value="Set Minutes" style="ellipse;whiteSpace=wrap;html=1;" vertex="1" parent="1">
          <mxGeometry x="660" y="290" width="140" height="70" as="geometry" />
        </mxCell>
        <mxCell id="DUGgmScSP8CRJdgulUdB-10" value="&amp;lt;&amp;lt;Extend&amp;gt;&amp;gt;" style="endArrow=block;endSize=16;endFill=0;html=1;rounded=0;entryX=0.021;entryY=0.414;entryDx=0;entryDy=0;entryPerimeter=0;exitX=1;exitY=0.5;exitDx=0;exitDy=0;" edge="1" parent="1" source="DUGgmScSP8CRJdgulUdB-3" target="DUGgmScSP8CRJdgulUdB-8">
          <mxGeometry width="160" relative="1" as="geometry">
            <mxPoint x="440" y="280" as="sourcePoint" />
            <mxPoint x="600" y="280" as="targetPoint" />
          </mxGeometry>
        </mxCell>
        <mxCell id="DUGgmScSP8CRJdgulUdB-11" value="Set TIme" style="ellipse;whiteSpace=wrap;html=1;" vertex="1" parent="1">
          <mxGeometry x="220" y="280" width="140" height="70" as="geometry" />
        </mxCell>
        <mxCell id="DUGgmScSP8CRJdgulUdB-14" value="&amp;lt;&amp;lt;Extend&amp;gt;&amp;gt;" style="endArrow=block;endSize=16;endFill=0;html=1;rounded=0;exitX=1.014;exitY=0.4;exitDx=0;exitDy=0;exitPerimeter=0;entryX=0;entryY=0.5;entryDx=0;entryDy=0;" edge="1" parent="1" source="DUGgmScSP8CRJdgulUdB-4" target="DUGgmScSP8CRJdgulUdB-15">
          <mxGeometry width="160" relative="1" as="geometry">
            <mxPoint x="630" y="260" as="sourcePoint" />
            <mxPoint x="460" y="140" as="targetPoint" />
          </mxGeometry>
        </mxCell>
        <mxCell id="DUGgmScSP8CRJdgulUdB-15" value="Set 12 hr Display" style="ellipse;whiteSpace=wrap;html=1;" vertex="1" parent="1">
          <mxGeometry x="470" y="70" width="140" height="70" as="geometry" />
        </mxCell>
        <mxCell id="DUGgmScSP8CRJdgulUdB-16" value="Set 24 hr Display" style="ellipse;whiteSpace=wrap;html=1;" vertex="1" parent="1">
          <mxGeometry x="460" y="170" width="140" height="70" as="geometry" />
        </mxCell>
        <mxCell id="DUGgmScSP8CRJdgulUdB-17" value="&amp;lt;&amp;lt;Extend&amp;gt;&amp;gt;" style="endArrow=block;endSize=16;endFill=0;html=1;rounded=0;exitX=0.964;exitY=0.743;exitDx=0;exitDy=0;exitPerimeter=0;entryX=0;entryY=0.5;entryDx=0;entryDy=0;" edge="1" parent="1" source="DUGgmScSP8CRJdgulUdB-4" target="DUGgmScSP8CRJdgulUdB-16">
          <mxGeometry x="-0.0074" width="160" relative="1" as="geometry">
            <mxPoint x="331" y="220" as="sourcePoint" />
            <mxPoint x="429" y="232" as="targetPoint" />
            <mxPoint as="offset" />
          </mxGeometry>
        </mxCell>
        <mxCell id="DUGgmScSP8CRJdgulUdB-18" value="&amp;lt;&amp;lt;Include&amp;gt;&amp;gt;" style="endArrow=block;endSize=16;endFill=0;html=1;rounded=0;exitX=1;exitY=0.5;exitDx=0;exitDy=0;" edge="1" parent="1" source="DUGgmScSP8CRJdgulUdB-5" target="DUGgmScSP8CRJdgulUdB-3">
          <mxGeometry x="0.0013" width="160" relative="1" as="geometry">
            <mxPoint x="620" y="380" as="sourcePoint" />
            <mxPoint x="482" y="380" as="targetPoint" />
            <mxPoint as="offset" />
          </mxGeometry>
        </mxCell>
        <mxCell id="DUGgmScSP8CRJdgulUdB-21" value="&amp;lt;&amp;lt;Include&amp;gt;&amp;gt;" style="endArrow=block;endSize=16;endFill=0;html=1;rounded=0;entryX=0.914;entryY=0.786;entryDx=0;entryDy=0;entryPerimeter=0;" edge="1" parent="1" source="DUGgmScSP8CRJdgulUdB-6" target="DUGgmScSP8CRJdgulUdB-5">
          <mxGeometry x="-0.0056" width="160" relative="1" as="geometry">
            <mxPoint x="370" y="445" as="sourcePoint" />
            <mxPoint x="492" y="360" as="targetPoint" />
            <mxPoint as="offset" />
          </mxGeometry>
        </mxCell>
        <mxCell id="DUGgmScSP8CRJdgulUdB-22" value="Snooze Alarn" style="ellipse;whiteSpace=wrap;html=1;" vertex="1" parent="1">
          <mxGeometry x="220" y="600" width="140" height="70" as="geometry" />
        </mxCell>
        <mxCell id="DUGgmScSP8CRJdgulUdB-25" value="Snooze TIme" style="ellipse;whiteSpace=wrap;html=1;" vertex="1" parent="1">
          <mxGeometry x="450" y="650" width="140" height="70" as="geometry" />
        </mxCell>
        <mxCell id="DUGgmScSP8CRJdgulUdB-26" value="&amp;lt;&amp;lt;Include&amp;gt;&amp;gt;" style="endArrow=block;endSize=16;endFill=0;html=1;rounded=0;exitX=0;exitY=0.5;exitDx=0;exitDy=0;entryX=1;entryY=0.5;entryDx=0;entryDy=0;" edge="1" parent="1" source="DUGgmScSP8CRJdgulUdB-25" target="DUGgmScSP8CRJdgulUdB-22">
          <mxGeometry x="0.002" width="160" relative="1" as="geometry">
            <mxPoint x="370" y="435" as="sourcePoint" />
            <mxPoint x="420" y="650" as="targetPoint" />
            <mxPoint as="offset" />
            <Array as="points" />
          </mxGeometry>
        </mxCell>
        <mxCell id="DUGgmScSP8CRJdgulUdB-27" value="Auto Turn Off" style="ellipse;whiteSpace=wrap;html=1;" vertex="1" parent="1">
          <mxGeometry x="460" y="500" width="140" height="70" as="geometry" />
        </mxCell>
        <mxCell id="DUGgmScSP8CRJdgulUdB-28" value="&amp;lt;&amp;lt;Include&amp;gt;&amp;gt;" style="endArrow=block;endSize=16;endFill=0;html=1;rounded=0;entryX=1;entryY=0.5;entryDx=0;entryDy=0;exitX=0;exitY=0.5;exitDx=0;exitDy=0;" edge="1" parent="1" source="DUGgmScSP8CRJdgulUdB-27" target="DUGgmScSP8CRJdgulUdB-7">
          <mxGeometry x="0.0011" width="160" relative="1" as="geometry">
            <mxPoint x="482" y="522" as="sourcePoint" />
            <mxPoint x="370" y="528" as="targetPoint" />
            <mxPoint as="offset" />
          </mxGeometry>
        </mxCell>
        <mxCell id="DUGgmScSP8CRJdgulUdB-35" value="" style="endArrow=none;html=1;rounded=0;entryX=0.5;entryY=1;entryDx=0;entryDy=0;exitX=1;exitY=0.5;exitDx=0;exitDy=0;" edge="1" parent="1" source="DUGgmScSP8CRJdgulUdB-25" target="DUGgmScSP8CRJdgulUdB-8">
          <mxGeometry width="50" height="50" relative="1" as="geometry">
            <mxPoint x="600" y="420" as="sourcePoint" />
            <mxPoint x="650" y="370" as="targetPoint" />
            <Array as="points">
              <mxPoint x="730" y="685" />
            </Array>
          </mxGeometry>
        </mxCell>
        <mxCell id="DUGgmScSP8CRJdgulUdB-36" value="" style="endArrow=none;html=1;rounded=0;entryX=0;entryY=0.5;entryDx=0;entryDy=0;" edge="1" parent="1" target="DUGgmScSP8CRJdgulUdB-4">
          <mxGeometry width="50" height="50" relative="1" as="geometry">
            <mxPoint x="60" y="410" as="sourcePoint" />
            <mxPoint x="130" y="430" as="targetPoint" />
          </mxGeometry>
        </mxCell>
        <mxCell id="DUGgmScSP8CRJdgulUdB-37" value="" style="endArrow=none;html=1;rounded=0;" edge="1" parent="1" target="DUGgmScSP8CRJdgulUdB-11">
          <mxGeometry width="50" height="50" relative="1" as="geometry">
            <mxPoint x="60" y="420" as="sourcePoint" />
            <mxPoint x="230" y="155" as="targetPoint" />
          </mxGeometry>
        </mxCell>
        <mxCell id="DUGgmScSP8CRJdgulUdB-38" value="" style="endArrow=none;html=1;rounded=0;entryX=0;entryY=0.5;entryDx=0;entryDy=0;" edge="1" parent="1" target="DUGgmScSP8CRJdgulUdB-5">
          <mxGeometry width="50" height="50" relative="1" as="geometry">
            <mxPoint x="60" y="425" as="sourcePoint" />
            <mxPoint x="231" y="330" as="targetPoint" />
          </mxGeometry>
        </mxCell>
        <mxCell id="DUGgmScSP8CRJdgulUdB-39" value="" style="endArrow=none;html=1;rounded=0;entryX=0;entryY=0.5;entryDx=0;entryDy=0;" edge="1" parent="1" target="DUGgmScSP8CRJdgulUdB-7">
          <mxGeometry width="50" height="50" relative="1" as="geometry">
            <mxPoint x="60" y="430" as="sourcePoint" />
            <mxPoint x="241" y="340" as="targetPoint" />
          </mxGeometry>
        </mxCell>
        <mxCell id="DUGgmScSP8CRJdgulUdB-40" value="" style="endArrow=none;html=1;rounded=0;entryX=0;entryY=0.5;entryDx=0;entryDy=0;" edge="1" parent="1" target="DUGgmScSP8CRJdgulUdB-22">
          <mxGeometry width="50" height="50" relative="1" as="geometry">
            <mxPoint x="60" y="440" as="sourcePoint" />
            <mxPoint x="251" y="350" as="targetPoint" />
          </mxGeometry>
        </mxCell>
        <mxCell id="DUGgmScSP8CRJdgulUdB-41" value="" style="endArrow=none;html=1;rounded=0;exitX=1;exitY=0.5;exitDx=0;exitDy=0;entryX=0;entryY=0.5;entryDx=0;entryDy=0;" edge="1" parent="1" source="DUGgmScSP8CRJdgulUdB-11" target="DUGgmScSP8CRJdgulUdB-3">
          <mxGeometry width="50" height="50" relative="1" as="geometry">
            <mxPoint x="344" y="270" as="sourcePoint" />
            <mxPoint x="490" y="260" as="targetPoint" />
          </mxGeometry>
        </mxCell>
      </root>
    </mxGraphModel>
  </diagram>
</mxfile>
